<svg xmlns="http://www.w3.org/2000/svg" width="none" height="none" viewBox="0 0 24 24" fill="none" stroke="none">
  <path fill-rule="evenodd" clip-rule="evenodd" d="M8.00203 9.80037H3.6108C2.96647 9.7954 2.34641 10.0306 1.88703 10.4543C1.42764 10.8779 1.16657 11.4553 1.16125 12.0594V20.609C1.17318 21.8665 2.26965 22.8771 3.6108 22.8665H8.00203C8.64631 22.8716 9.26644 22.6364 9.72585 22.2128C10.1853 21.7892 10.4463 21.2118 10.4516 20.6075V12.0594C10.4463 11.4553 10.1853 10.8779 9.72585 10.4543C9.26644 10.0306 8.64631 9.7954 8.00203 9.80037Z"  stroke-width="1.5" stroke-linecap="round" stroke-linejoin="round"/>
  <path fill-rule="evenodd" clip-rule="evenodd" d="M8.00203 1.08974H3.6108C2.29662 1.05557 1.20088 2.02516 1.16125 3.25727V4.7294C1.20088 5.96152 2.29662 6.93112 3.6108 6.89693H8.00203C9.31615 6.93112 10.4119 5.96152 10.4516 4.7294V3.25727C10.4119 2.02516 9.31615 1.05557 8.00203 1.08974Z"  stroke-width="1.5" stroke-linecap="round" stroke-linejoin="round"/>
  <path fill-rule="evenodd" clip-rule="evenodd" d="M15.9979 14.1561H20.3876C21.0322 14.1615 21.6526 13.9265 22.1123 13.5028C22.572 13.0791 22.8334 12.5015 22.8387 11.8971V3.34892C22.8334 2.7448 22.5723 2.16739 22.1129 1.74374C21.6535 1.32009 21.0334 1.0849 20.3891 1.08992H15.9979C15.3536 1.0849 14.7335 1.32009 14.2741 1.74374C13.8147 2.16739 13.5536 2.7448 13.5483 3.34892V11.8971C13.5536 12.5012 13.8147 13.0786 14.2741 13.5023C14.7335 13.9259 15.3536 14.1611 15.9979 14.1561Z"  stroke-width="1.5" stroke-linecap="round" stroke-linejoin="round"/>
  <path fill-rule="evenodd" clip-rule="evenodd" d="M15.9979 22.8667H20.3876C21.7023 22.9016 22.799 21.9318 22.8387 20.6991V19.227C22.799 17.9949 21.7032 17.0254 20.3891 17.0595H15.9979C14.6838 17.0254 13.588 17.9949 13.5483 19.227V20.6977C13.587 21.9304 14.6832 22.9008 15.9979 22.8667Z"  stroke-width="1.5" stroke-linecap="round" stroke-linejoin="round"/>
</svg>