<svg xmlns="http://www.w3.org/2000/svg" width="none" height="none" viewBox="0 0 28 28" stroke="none" fill="none">
  <path d="M26.3594 2.4375C26.3594 1.33293 25.4639 0.4375 24.3594 0.4375H3.53125C2.42668 0.4375 1.53125 1.33293 1.53125 2.4375V17.9063C1.53125 19.0108 2.42668 19.9063 3.53125 19.9063H13.523C14.3507 19.9063 15.0928 20.4161 15.3898 21.1887L16.3516 23.6906C16.6463 24.4974 17.2217 25.1225 17.9254 25.4921C18.4593 25.7724 18.9621 26.1685 19.1501 26.7415V26.7415C19.3728 27.4206 20.0066 27.8797 20.7213 27.8797H22.4319C23.8076 27.8797 24.7725 26.523 24.3211 25.2235L24.2531 25.0276C24.0258 24.3732 24.1967 23.6605 24.4332 23.0094C24.6918 22.2974 24.7131 21.4929 24.4344 20.7375V20.7375C24.2597 20.3471 24.5454 19.9063 24.9731 19.9063H25.4561C25.955 19.9063 26.3594 19.5018 26.3594 19.003V2.4375ZM25.1562 17.6926C25.1562 18.2507 24.7038 18.7031 24.1457 18.7031V18.7031C23.7213 18.7031 23.3422 18.438 23.1965 18.0394L22.0281 14.8422C21.8641 14.4266 21.4484 14.1203 20.9672 14.1203C20.3328 14.1203 19.8297 14.6344 19.8297 15.2578C19.8297 15.5203 20.1141 16.2203 20.1687 16.3734V16.3734C20.583 17.5047 19.7456 18.7031 18.5409 18.7031H4.73438C3.62981 18.7031 2.73437 17.8077 2.73437 16.7031V3.53125C2.73437 2.42668 3.62981 1.53125 4.73437 1.53125H23.1562C24.2608 1.53125 25.1562 2.42668 25.1562 3.53125V17.6926Z" />
  <path d="M8.30156 8.42188H12.9062V9.73438H8.81562C8.575 9.73438 8.38906 9.93125 8.38906 10.1719C8.38906 10.4125 8.58594 10.6094 8.81562 10.6094H12.9062V11.9219H8.95781C8.79375 11.9219 8.55312 12.0859 8.55312 12.3484C8.55312 14.6563 8.76094 15.75 9.975 15.75C11.2875 15.75 11.4844 12.95 12.9062 12.8406V15.4219H15.0938V12.8516C16.4062 13.0266 16.6687 15.7609 17.9266 15.7609C19.1406 15.7609 19.425 14.6563 19.425 12.3484C19.425 12.0859 19.1734 11.9219 19.0094 11.9219H15.0938V10.6094H19.1625C19.4031 10.6094 19.5891 10.4125 19.5891 10.1719C19.5891 9.93125 19.3922 9.73438 19.1625 9.73438H15.0938V8.42188H19.6984C19.9391 8.42188 20.125 8.225 20.125 7.98438C20.125 7.74375 19.9281 7.54688 19.6984 7.54688H15.0938V6.23438H19.4141C19.6547 6.23438 19.8406 6.0375 19.8406 5.79688C19.8406 5.55625 19.6437 5.35938 19.4141 5.35938H15.0938V3.9375H18.4516C18.6922 3.9375 18.8781 3.74063 18.8781 3.5C18.8781 3.25938 18.6812 3.0625 18.4516 3.0625H15.0938V2.40625H12.9062V3.0625H9.52656C9.28594 3.0625 9.1 3.25938 9.1 3.5C9.1 3.74063 9.28594 3.9375 9.52656 3.9375H12.9062V5.35938H8.58594C8.34531 5.35938 8.15937 5.55625 8.15937 5.79688C8.15937 6.0375 8.35625 6.23438 8.58594 6.23438H12.9062V7.54688H8.30156C8.06094 7.54688 7.875 7.74375 7.875 7.98438C7.875 8.225 8.06094 8.42188 8.30156 8.42188Z"/>
</svg>