<svg xmlns="http://www.w3.org/2000/svg" width="none" height="none" viewBox="0 0 20 24" stroke="none" fill="none">
  <path fill-rule="evenodd" clip-rule="evenodd" d="M13.5332 0C14.0894 0 14.6358 0.225875 15.0296 0.619763L19.1449 4.73506C19.5445 5.13459 19.7647 5.66681 19.7647 6.23153V24H0V0H13.5332ZM12.7059 1.41176H1.41175V22.5883H18.3529V7.05883H12.7059V1.41175L12.7059 1.41176ZM14.1176 1.704V5.64706H18.0607L14.1176 1.704Z"/>
  <path fill-rule="evenodd" clip-rule="evenodd" d="M9.14376 8.47095C9.47835 8.47095 9.77341 8.62907 9.99365 8.94389C10.5174 9.68224 10.4807 10.4686 10.2873 11.5274C10.221 11.8917 10.2887 12.2601 10.4906 12.5665C10.7758 13.0013 11.1866 13.5999 11.5904 14.1067C11.8868 14.4808 12.3428 14.6799 12.8045 14.6178C13.101 14.5768 13.4581 14.5429 13.8252 14.5429C15.4628 14.5429 15.34 15.1274 15.4882 15.6639C15.5701 15.9886 15.5292 16.2724 15.3612 16.4827C15.1522 16.7665 14.7216 16.9133 14.092 16.9133C13.3946 16.9133 13.1645 16.7947 12.5574 16.6013C12.2144 16.4912 11.8586 16.4686 11.5113 16.5604C10.8181 16.7411 9.67459 17.0164 8.72024 17.1476C8.21059 17.2182 7.74754 17.4808 7.43976 17.9086C6.74659 18.8686 6.10424 19.7651 5.08635 19.7651C4.82376 19.7651 4.58235 19.6705 4.3833 19.4813C4.08965 19.1876 3.964 18.8615 4.02613 18.4832C4.19835 17.3213 5.62706 16.6733 6.47695 16.2004C6.67741 16.0888 6.83554 15.918 6.93435 15.7062L8.2826 12.7909C8.3786 12.5862 8.40824 12.3589 8.37295 12.1345C8.21624 11.1462 7.9847 9.4846 8.6073 8.73354C8.74424 8.56554 8.93343 8.47095 9.14376 8.47095ZM9.40071 12.7204C8.86 14.3029 7.90424 16.0239 7.77576 16.2244C8.92918 15.6822 11.2247 15.4084 11.2247 15.4084C10.0699 14.2959 9.40071 12.7204 9.40071 12.7204Z"/>
</svg>